<mxfile host="app.diagrams.net" modified="2023-09-09T21:26:21.896Z" agent="Mozilla/5.0 (Windows NT 10.0; Win64; x64; rv:109.0) Gecko/20100101 Firefox/117.0" etag="8Md1ERSqh-wslZc2eZLL" version="21.7.4" type="device">
  <diagram name="Page-1" id="1VWMIe4rgyEAhSwZu4Dp">
    <mxGraphModel dx="1434" dy="1892" grid="1" gridSize="10" guides="1" tooltips="1" connect="1" arrows="1" fold="1" page="1" pageScale="1" pageWidth="850" pageHeight="1100" math="0" shadow="0">
      <root>
        <mxCell id="0" />
        <mxCell id="1" parent="0" />
        <mxCell id="bPZLMtwIf8Tth22qELU2-23" value="" style="rounded=1;whiteSpace=wrap;html=1;fillColor=none;strokeColor=#EA6B66;dashed=1;strokeWidth=3;perimeterSpacing=0;glass=0;dashPattern=1 1;" parent="1" vertex="1">
          <mxGeometry x="870" y="146.5" width="260" height="127" as="geometry" />
        </mxCell>
        <mxCell id="q3L-NCkKGhcxbYuwb6-e-39" style="edgeStyle=orthogonalEdgeStyle;rounded=0;orthogonalLoop=1;jettySize=auto;html=1;exitX=0.5;exitY=0;exitDx=0;exitDy=0;entryX=0.5;entryY=1;entryDx=0;entryDy=0;" parent="1" source="q3L-NCkKGhcxbYuwb6-e-1" target="q3L-NCkKGhcxbYuwb6-e-6" edge="1">
          <mxGeometry relative="1" as="geometry" />
        </mxCell>
        <mxCell id="q3L-NCkKGhcxbYuwb6-e-1" value="&lt;div&gt;Kernel&lt;/div&gt;" style="rounded=0;whiteSpace=wrap;html=1;fillColor=#dae8fc;strokeColor=#6c8ebf;" parent="1" vertex="1">
          <mxGeometry x="301" y="400" width="120" height="60" as="geometry" />
        </mxCell>
        <mxCell id="q3L-NCkKGhcxbYuwb6-e-31" style="edgeStyle=orthogonalEdgeStyle;rounded=0;orthogonalLoop=1;jettySize=auto;html=1;exitX=0.5;exitY=0;exitDx=0;exitDy=0;entryX=0.5;entryY=1;entryDx=0;entryDy=0;" parent="1" source="q3L-NCkKGhcxbYuwb6-e-2" target="q3L-NCkKGhcxbYuwb6-e-5" edge="1">
          <mxGeometry relative="1" as="geometry" />
        </mxCell>
        <mxCell id="q3L-NCkKGhcxbYuwb6-e-2" value="Recurrent&lt;br&gt;Kernel" style="rounded=0;whiteSpace=wrap;html=1;fillColor=#dae8fc;strokeColor=#6c8ebf;" parent="1" vertex="1">
          <mxGeometry x="301" y="160" width="120" height="60" as="geometry" />
        </mxCell>
        <mxCell id="q3L-NCkKGhcxbYuwb6-e-41" style="edgeStyle=orthogonalEdgeStyle;rounded=0;orthogonalLoop=1;jettySize=auto;html=1;exitX=0.5;exitY=0;exitDx=0;exitDy=0;entryX=0.5;entryY=1;entryDx=0;entryDy=0;" parent="1" source="q3L-NCkKGhcxbYuwb6-e-3" target="q3L-NCkKGhcxbYuwb6-e-12" edge="1">
          <mxGeometry relative="1" as="geometry" />
        </mxCell>
        <mxCell id="q3L-NCkKGhcxbYuwb6-e-3" value="&lt;div&gt;Bias&lt;/div&gt;" style="rounded=0;whiteSpace=wrap;html=1;fillColor=#dae8fc;strokeColor=#6c8ebf;" parent="1" vertex="1">
          <mxGeometry x="461" y="400" width="120" height="60" as="geometry" />
        </mxCell>
        <mxCell id="q3L-NCkKGhcxbYuwb6-e-32" style="edgeStyle=orthogonalEdgeStyle;rounded=0;orthogonalLoop=1;jettySize=auto;html=1;exitX=0.5;exitY=0;exitDx=0;exitDy=0;entryX=0.5;entryY=1;entryDx=0;entryDy=0;" parent="1" source="q3L-NCkKGhcxbYuwb6-e-4" target="q3L-NCkKGhcxbYuwb6-e-13" edge="1">
          <mxGeometry relative="1" as="geometry" />
        </mxCell>
        <mxCell id="q3L-NCkKGhcxbYuwb6-e-4" value="Recurrent&lt;br&gt;Bias" style="rounded=0;whiteSpace=wrap;html=1;fillColor=#dae8fc;strokeColor=#6c8ebf;" parent="1" vertex="1">
          <mxGeometry x="461" y="160" width="120" height="60" as="geometry" />
        </mxCell>
        <mxCell id="q3L-NCkKGhcxbYuwb6-e-5" value="DOT" style="ellipse;whiteSpace=wrap;html=1;aspect=fixed;fillColor=#fff2cc;strokeColor=#d6b656;" parent="1" vertex="1">
          <mxGeometry x="341" y="80" width="40" height="40" as="geometry" />
        </mxCell>
        <mxCell id="q3L-NCkKGhcxbYuwb6-e-40" style="edgeStyle=orthogonalEdgeStyle;rounded=0;orthogonalLoop=1;jettySize=auto;html=1;exitX=1;exitY=0.5;exitDx=0;exitDy=0;entryX=0;entryY=0.5;entryDx=0;entryDy=0;" parent="1" source="q3L-NCkKGhcxbYuwb6-e-6" target="q3L-NCkKGhcxbYuwb6-e-12" edge="1">
          <mxGeometry relative="1" as="geometry" />
        </mxCell>
        <mxCell id="q3L-NCkKGhcxbYuwb6-e-6" value="DOT" style="ellipse;whiteSpace=wrap;html=1;aspect=fixed;fillColor=#fff2cc;strokeColor=#d6b656;" parent="1" vertex="1">
          <mxGeometry x="341" y="320" width="40" height="40" as="geometry" />
        </mxCell>
        <mxCell id="bPZLMtwIf8Tth22qELU2-18" style="edgeStyle=orthogonalEdgeStyle;rounded=0;orthogonalLoop=1;jettySize=auto;html=1;entryX=0;entryY=0.5;entryDx=0;entryDy=0;" parent="1" source="q3L-NCkKGhcxbYuwb6-e-8" target="q3L-NCkKGhcxbYuwb6-e-25" edge="1">
          <mxGeometry relative="1" as="geometry">
            <Array as="points">
              <mxPoint x="760" y="690" />
            </Array>
          </mxGeometry>
        </mxCell>
        <mxCell id="q3L-NCkKGhcxbYuwb6-e-8" value="ADD" style="ellipse;whiteSpace=wrap;html=1;aspect=fixed;fillColor=#fff2cc;strokeColor=#d6b656;" parent="1" vertex="1">
          <mxGeometry x="740" y="620" width="40" height="40" as="geometry" />
        </mxCell>
        <mxCell id="q3L-NCkKGhcxbYuwb6-e-100" style="edgeStyle=orthogonalEdgeStyle;rounded=0;orthogonalLoop=1;jettySize=auto;html=1;exitX=0;exitY=0.5;exitDx=0;exitDy=0;entryX=1;entryY=0.5;entryDx=0;entryDy=0;" parent="1" source="q3L-NCkKGhcxbYuwb6-e-9" target="q3L-NCkKGhcxbYuwb6-e-15" edge="1">
          <mxGeometry relative="1" as="geometry" />
        </mxCell>
        <mxCell id="q3L-NCkKGhcxbYuwb6-e-9" value="ADD&lt;br&gt;(1 - Z)" style="ellipse;whiteSpace=wrap;html=1;aspect=fixed;fillColor=#fff2cc;strokeColor=#d6b656;" parent="1" vertex="1">
          <mxGeometry x="862.5" y="550" width="40" height="40" as="geometry" />
        </mxCell>
        <mxCell id="q3L-NCkKGhcxbYuwb6-e-80" style="edgeStyle=orthogonalEdgeStyle;rounded=0;orthogonalLoop=1;jettySize=auto;html=1;exitX=0.5;exitY=1;exitDx=0;exitDy=0;entryX=0.5;entryY=0;entryDx=0;entryDy=0;" parent="1" source="q3L-NCkKGhcxbYuwb6-e-10" target="q3L-NCkKGhcxbYuwb6-e-20" edge="1">
          <mxGeometry relative="1" as="geometry" />
        </mxCell>
        <mxCell id="q3L-NCkKGhcxbYuwb6-e-10" value="ADD" style="ellipse;whiteSpace=wrap;html=1;aspect=fixed;fillColor=#fff2cc;strokeColor=#d6b656;" parent="1" vertex="1">
          <mxGeometry x="740" y="410" width="40" height="40" as="geometry" />
        </mxCell>
        <mxCell id="q3L-NCkKGhcxbYuwb6-e-70" style="edgeStyle=orthogonalEdgeStyle;rounded=0;orthogonalLoop=1;jettySize=auto;html=1;exitX=1;exitY=0.5;exitDx=0;exitDy=0;entryX=0;entryY=0.5;entryDx=0;entryDy=0;" parent="1" source="q3L-NCkKGhcxbYuwb6-e-11" target="q3L-NCkKGhcxbYuwb6-e-19" edge="1">
          <mxGeometry relative="1" as="geometry" />
        </mxCell>
        <mxCell id="q3L-NCkKGhcxbYuwb6-e-11" value="ADD" style="ellipse;whiteSpace=wrap;html=1;aspect=fixed;fillColor=#fff2cc;strokeColor=#d6b656;" parent="1" vertex="1">
          <mxGeometry x="700" y="190" width="40" height="40" as="geometry" />
        </mxCell>
        <mxCell id="q3L-NCkKGhcxbYuwb6-e-42" style="edgeStyle=orthogonalEdgeStyle;rounded=0;orthogonalLoop=1;jettySize=auto;html=1;exitX=1;exitY=0.5;exitDx=0;exitDy=0;entryX=1;entryY=0.5;entryDx=0;entryDy=0;entryPerimeter=0;" parent="1" source="q3L-NCkKGhcxbYuwb6-e-12" target="q3L-NCkKGhcxbYuwb6-e-37" edge="1">
          <mxGeometry relative="1" as="geometry" />
        </mxCell>
        <mxCell id="q3L-NCkKGhcxbYuwb6-e-12" value="ADD" style="ellipse;whiteSpace=wrap;html=1;aspect=fixed;fillColor=#fff2cc;strokeColor=#d6b656;" parent="1" vertex="1">
          <mxGeometry x="501" y="320" width="40" height="40" as="geometry" />
        </mxCell>
        <mxCell id="q3L-NCkKGhcxbYuwb6-e-120" style="edgeStyle=orthogonalEdgeStyle;rounded=0;orthogonalLoop=1;jettySize=auto;html=1;exitX=1;exitY=0.5;exitDx=0;exitDy=0;entryX=1;entryY=0.5;entryDx=0;entryDy=0;entryPerimeter=0;" parent="1" source="q3L-NCkKGhcxbYuwb6-e-13" target="q3L-NCkKGhcxbYuwb6-e-27" edge="1">
          <mxGeometry relative="1" as="geometry" />
        </mxCell>
        <mxCell id="q3L-NCkKGhcxbYuwb6-e-13" value="ADD" style="ellipse;whiteSpace=wrap;html=1;aspect=fixed;fillColor=#fff2cc;strokeColor=#d6b656;" parent="1" vertex="1">
          <mxGeometry x="501" y="80" width="40" height="40" as="geometry" />
        </mxCell>
        <mxCell id="q3L-NCkKGhcxbYuwb6-e-102" style="edgeStyle=orthogonalEdgeStyle;rounded=0;orthogonalLoop=1;jettySize=auto;html=1;exitX=0.5;exitY=1;exitDx=0;exitDy=0;entryX=1;entryY=0.5;entryDx=0;entryDy=0;" parent="1" source="q3L-NCkKGhcxbYuwb6-e-14" target="q3L-NCkKGhcxbYuwb6-e-8" edge="1">
          <mxGeometry relative="1" as="geometry">
            <Array as="points">
              <mxPoint x="1100" y="640" />
            </Array>
          </mxGeometry>
        </mxCell>
        <mxCell id="q3L-NCkKGhcxbYuwb6-e-14" value="MUL" style="ellipse;whiteSpace=wrap;html=1;aspect=fixed;fillColor=#fff2cc;strokeColor=#d6b656;" parent="1" vertex="1">
          <mxGeometry x="1080" y="190" width="40" height="40" as="geometry" />
        </mxCell>
        <mxCell id="q3L-NCkKGhcxbYuwb6-e-101" style="edgeStyle=orthogonalEdgeStyle;rounded=0;orthogonalLoop=1;jettySize=auto;html=1;exitX=0.5;exitY=1;exitDx=0;exitDy=0;entryX=0.5;entryY=0;entryDx=0;entryDy=0;" parent="1" source="q3L-NCkKGhcxbYuwb6-e-15" target="q3L-NCkKGhcxbYuwb6-e-8" edge="1">
          <mxGeometry relative="1" as="geometry" />
        </mxCell>
        <mxCell id="q3L-NCkKGhcxbYuwb6-e-15" value="MUL" style="ellipse;whiteSpace=wrap;html=1;aspect=fixed;fillColor=#fff2cc;strokeColor=#d6b656;" parent="1" vertex="1">
          <mxGeometry x="740" y="550" width="40" height="40" as="geometry" />
        </mxCell>
        <mxCell id="q3L-NCkKGhcxbYuwb6-e-87" style="edgeStyle=orthogonalEdgeStyle;rounded=0;orthogonalLoop=1;jettySize=auto;html=1;exitX=0.5;exitY=1;exitDx=0;exitDy=0;entryX=1;entryY=0.5;entryDx=0;entryDy=0;" parent="1" source="q3L-NCkKGhcxbYuwb6-e-16" target="q3L-NCkKGhcxbYuwb6-e-10" edge="1">
          <mxGeometry relative="1" as="geometry" />
        </mxCell>
        <mxCell id="q3L-NCkKGhcxbYuwb6-e-16" value="MUL" style="ellipse;whiteSpace=wrap;html=1;aspect=fixed;fillColor=#fff2cc;strokeColor=#d6b656;" parent="1" vertex="1">
          <mxGeometry x="1000" y="320" width="40" height="40" as="geometry" />
        </mxCell>
        <mxCell id="q3L-NCkKGhcxbYuwb6-e-77" style="edgeStyle=orthogonalEdgeStyle;rounded=0;orthogonalLoop=1;jettySize=auto;html=1;exitX=1;exitY=0.5;exitDx=0;exitDy=0;entryX=0;entryY=0.5;entryDx=0;entryDy=0;" parent="1" source="q3L-NCkKGhcxbYuwb6-e-17" target="q3L-NCkKGhcxbYuwb6-e-16" edge="1">
          <mxGeometry relative="1" as="geometry" />
        </mxCell>
        <mxCell id="q3L-NCkKGhcxbYuwb6-e-17" value="SIG" style="ellipse;whiteSpace=wrap;html=1;aspect=fixed;fillColor=#f8cecc;strokeColor=#b85450;" parent="1" vertex="1">
          <mxGeometry x="890" y="310" width="60" height="60" as="geometry" />
        </mxCell>
        <mxCell id="q3L-NCkKGhcxbYuwb6-e-93" style="edgeStyle=orthogonalEdgeStyle;rounded=0;orthogonalLoop=1;jettySize=auto;html=1;exitX=1;exitY=0.5;exitDx=0;exitDy=0;entryX=0;entryY=0.5;entryDx=0;entryDy=0;" parent="1" source="q3L-NCkKGhcxbYuwb6-e-19" target="q3L-NCkKGhcxbYuwb6-e-14" edge="1">
          <mxGeometry relative="1" as="geometry">
            <mxPoint x="1200" y="580" as="targetPoint" />
            <Array as="points">
              <mxPoint x="1070" y="210" />
              <mxPoint x="1070" y="210" />
            </Array>
          </mxGeometry>
        </mxCell>
        <mxCell id="q3L-NCkKGhcxbYuwb6-e-111" style="edgeStyle=orthogonalEdgeStyle;rounded=0;orthogonalLoop=1;jettySize=auto;html=1;exitX=1;exitY=0.5;exitDx=0;exitDy=0;entryX=1;entryY=0.5;entryDx=0;entryDy=0;" parent="1" source="q3L-NCkKGhcxbYuwb6-e-19" target="q3L-NCkKGhcxbYuwb6-e-112" edge="1">
          <mxGeometry relative="1" as="geometry">
            <mxPoint x="1092.5000000000005" y="593.75" as="targetPoint" />
            <Array as="points">
              <mxPoint x="1060" y="210" />
              <mxPoint x="1060" y="570" />
            </Array>
          </mxGeometry>
        </mxCell>
        <mxCell id="q3L-NCkKGhcxbYuwb6-e-19" value="SIG" style="ellipse;whiteSpace=wrap;html=1;aspect=fixed;fillColor=#f8cecc;strokeColor=#b85450;" parent="1" vertex="1">
          <mxGeometry x="890" y="180" width="60" height="60" as="geometry" />
        </mxCell>
        <mxCell id="q3L-NCkKGhcxbYuwb6-e-99" style="edgeStyle=orthogonalEdgeStyle;rounded=0;orthogonalLoop=1;jettySize=auto;html=1;exitX=0.5;exitY=1;exitDx=0;exitDy=0;entryX=0.5;entryY=0;entryDx=0;entryDy=0;" parent="1" source="q3L-NCkKGhcxbYuwb6-e-20" target="q3L-NCkKGhcxbYuwb6-e-15" edge="1">
          <mxGeometry relative="1" as="geometry" />
        </mxCell>
        <mxCell id="q3L-NCkKGhcxbYuwb6-e-20" value="TAN" style="ellipse;whiteSpace=wrap;html=1;aspect=fixed;fillColor=#f8cecc;strokeColor=#b85450;" parent="1" vertex="1">
          <mxGeometry x="730" y="470" width="60" height="60" as="geometry" />
        </mxCell>
        <mxCell id="q3L-NCkKGhcxbYuwb6-e-96" style="edgeStyle=orthogonalEdgeStyle;rounded=0;orthogonalLoop=1;jettySize=auto;html=1;exitX=0;exitY=0.5;exitDx=0;exitDy=0;entryX=1;entryY=0.5;entryDx=0;entryDy=0;" parent="1" source="q3L-NCkKGhcxbYuwb6-e-112" target="q3L-NCkKGhcxbYuwb6-e-9" edge="1">
          <mxGeometry relative="1" as="geometry">
            <mxPoint x="942.4999999999995" y="593.75" as="sourcePoint" />
          </mxGeometry>
        </mxCell>
        <mxCell id="q3L-NCkKGhcxbYuwb6-e-95" style="edgeStyle=orthogonalEdgeStyle;rounded=0;orthogonalLoop=1;jettySize=auto;html=1;exitX=0.5;exitY=1;exitDx=0;exitDy=0;entryX=0.5;entryY=0;entryDx=0;entryDy=0;" parent="1" source="q3L-NCkKGhcxbYuwb6-e-22" target="q3L-NCkKGhcxbYuwb6-e-9" edge="1">
          <mxGeometry relative="1" as="geometry" />
        </mxCell>
        <mxCell id="q3L-NCkKGhcxbYuwb6-e-22" value="1" style="rounded=1;whiteSpace=wrap;html=1;fillColor=#dae8fc;strokeColor=#6c8ebf;" parent="1" vertex="1">
          <mxGeometry x="867.5" y="500" width="30" height="30" as="geometry" />
        </mxCell>
        <mxCell id="q3L-NCkKGhcxbYuwb6-e-88" style="edgeStyle=orthogonalEdgeStyle;rounded=0;orthogonalLoop=1;jettySize=auto;html=1;exitX=1;exitY=0.5;exitDx=0;exitDy=0;entryX=0;entryY=0.5;entryDx=0;entryDy=0;" parent="1" source="q3L-NCkKGhcxbYuwb6-e-23" target="q3L-NCkKGhcxbYuwb6-e-5" edge="1">
          <mxGeometry relative="1" as="geometry">
            <Array as="points">
              <mxPoint x="291" y="40" />
              <mxPoint x="291" y="100" />
            </Array>
          </mxGeometry>
        </mxCell>
        <mxCell id="q3L-NCkKGhcxbYuwb6-e-103" style="edgeStyle=orthogonalEdgeStyle;rounded=0;orthogonalLoop=1;jettySize=auto;html=1;exitX=1;exitY=0.5;exitDx=0;exitDy=0;entryX=0.5;entryY=0;entryDx=0;entryDy=0;" parent="1" source="bPZLMtwIf8Tth22qELU2-8" target="q3L-NCkKGhcxbYuwb6-e-14" edge="1">
          <mxGeometry relative="1" as="geometry">
            <Array as="points">
              <mxPoint x="1100" y="40" />
            </Array>
          </mxGeometry>
        </mxCell>
        <mxCell id="bPZLMtwIf8Tth22qELU2-12" value="&lt;font style=&quot;font-size: 12px;&quot;&gt;[1]&lt;/font&gt;" style="edgeLabel;html=1;align=center;verticalAlign=middle;resizable=0;points=[];" parent="q3L-NCkKGhcxbYuwb6-e-103" vertex="1" connectable="0">
          <mxGeometry x="-0.967" y="1" relative="1" as="geometry">
            <mxPoint x="-4" y="-10" as="offset" />
          </mxGeometry>
        </mxCell>
        <mxCell id="q3L-NCkKGhcxbYuwb6-e-23" value="STATE" style="rounded=1;whiteSpace=wrap;html=1;fillColor=#f5f5f5;strokeColor=#666666;fontColor=#333333;" parent="1" vertex="1">
          <mxGeometry x="160" y="10" width="120" height="60" as="geometry" />
        </mxCell>
        <mxCell id="q3L-NCkKGhcxbYuwb6-e-38" style="edgeStyle=orthogonalEdgeStyle;rounded=0;orthogonalLoop=1;jettySize=auto;html=1;exitX=1;exitY=0.5;exitDx=0;exitDy=0;entryX=0;entryY=0.5;entryDx=0;entryDy=0;" parent="1" source="q3L-NCkKGhcxbYuwb6-e-24" target="q3L-NCkKGhcxbYuwb6-e-6" edge="1">
          <mxGeometry relative="1" as="geometry" />
        </mxCell>
        <mxCell id="q3L-NCkKGhcxbYuwb6-e-24" value="INPUT" style="rounded=1;whiteSpace=wrap;html=1;fillColor=#f5f5f5;strokeColor=#666666;fontColor=#333333;" parent="1" vertex="1">
          <mxGeometry x="160" y="310" width="120" height="60" as="geometry" />
        </mxCell>
        <mxCell id="q3L-NCkKGhcxbYuwb6-e-25" value="OUTPUT" style="rounded=1;whiteSpace=wrap;html=1;fillColor=#f5f5f5;strokeColor=#666666;fontColor=#333333;" parent="1" vertex="1">
          <mxGeometry x="974" y="660" width="120" height="60" as="geometry" />
        </mxCell>
        <mxCell id="q3L-NCkKGhcxbYuwb6-e-83" style="edgeStyle=orthogonalEdgeStyle;rounded=0;orthogonalLoop=1;jettySize=auto;html=1;exitX=0;exitY=0.75;exitDx=0;exitDy=0;exitPerimeter=0;entryX=0.5;entryY=0;entryDx=0;entryDy=0;" parent="1" source="q3L-NCkKGhcxbYuwb6-e-27" target="q3L-NCkKGhcxbYuwb6-e-11" edge="1">
          <mxGeometry relative="1" as="geometry" />
        </mxCell>
        <mxCell id="q3L-NCkKGhcxbYuwb6-e-84" style="edgeStyle=orthogonalEdgeStyle;rounded=0;orthogonalLoop=1;jettySize=auto;html=1;exitX=0;exitY=0.25;exitDx=0;exitDy=0;exitPerimeter=0;entryX=0.5;entryY=0;entryDx=0;entryDy=0;" parent="1" source="q3L-NCkKGhcxbYuwb6-e-27" target="q3L-NCkKGhcxbYuwb6-e-16" edge="1">
          <mxGeometry relative="1" as="geometry" />
        </mxCell>
        <mxCell id="q3L-NCkKGhcxbYuwb6-e-89" style="edgeStyle=orthogonalEdgeStyle;rounded=0;orthogonalLoop=1;jettySize=auto;html=1;exitX=0;exitY=0.5;exitDx=0;exitDy=0;exitPerimeter=0;entryX=0.5;entryY=0;entryDx=0;entryDy=0;" parent="1" source="q3L-NCkKGhcxbYuwb6-e-27" target="q3L-NCkKGhcxbYuwb6-e-64" edge="1">
          <mxGeometry relative="1" as="geometry" />
        </mxCell>
        <mxCell id="q3L-NCkKGhcxbYuwb6-e-27" value="SPLIT" style="shape=or;whiteSpace=wrap;html=1;portConstraintRotation=0;direction=west;fillColor=#d5e8d4;strokeColor=#82b366;" parent="1" vertex="1">
          <mxGeometry x="600" y="60" width="60" height="80" as="geometry" />
        </mxCell>
        <mxCell id="q3L-NCkKGhcxbYuwb6-e-30" value="" style="endArrow=classic;html=1;rounded=0;exitX=1;exitY=0.5;exitDx=0;exitDy=0;entryX=0;entryY=0.5;entryDx=0;entryDy=0;" parent="1" source="q3L-NCkKGhcxbYuwb6-e-5" target="q3L-NCkKGhcxbYuwb6-e-13" edge="1">
          <mxGeometry width="50" height="50" relative="1" as="geometry">
            <mxPoint x="631" y="190" as="sourcePoint" />
            <mxPoint x="461" y="150" as="targetPoint" />
          </mxGeometry>
        </mxCell>
        <mxCell id="q3L-NCkKGhcxbYuwb6-e-65" style="edgeStyle=orthogonalEdgeStyle;rounded=0;orthogonalLoop=1;jettySize=auto;html=1;exitX=0;exitY=0.5;exitDx=0;exitDy=0;exitPerimeter=0;entryX=0;entryY=0.5;entryDx=0;entryDy=0;" parent="1" source="q3L-NCkKGhcxbYuwb6-e-37" target="q3L-NCkKGhcxbYuwb6-e-64" edge="1">
          <mxGeometry relative="1" as="geometry" />
        </mxCell>
        <mxCell id="q3L-NCkKGhcxbYuwb6-e-85" style="edgeStyle=orthogonalEdgeStyle;rounded=0;orthogonalLoop=1;jettySize=auto;html=1;exitX=0;exitY=0.25;exitDx=0;exitDy=0;exitPerimeter=0;entryX=0.5;entryY=0;entryDx=0;entryDy=0;" parent="1" source="q3L-NCkKGhcxbYuwb6-e-37" target="q3L-NCkKGhcxbYuwb6-e-10" edge="1">
          <mxGeometry relative="1" as="geometry" />
        </mxCell>
        <mxCell id="q3L-NCkKGhcxbYuwb6-e-86" style="edgeStyle=orthogonalEdgeStyle;rounded=0;orthogonalLoop=1;jettySize=auto;html=1;exitX=0;exitY=0.75;exitDx=0;exitDy=0;exitPerimeter=0;entryX=0.5;entryY=1;entryDx=0;entryDy=0;" parent="1" source="q3L-NCkKGhcxbYuwb6-e-37" target="q3L-NCkKGhcxbYuwb6-e-11" edge="1">
          <mxGeometry relative="1" as="geometry" />
        </mxCell>
        <mxCell id="q3L-NCkKGhcxbYuwb6-e-37" value="SPLIT" style="shape=or;whiteSpace=wrap;html=1;portConstraintRotation=0;direction=west;fillColor=#d5e8d4;strokeColor=#82b366;" parent="1" vertex="1">
          <mxGeometry x="600" y="300" width="60" height="80" as="geometry" />
        </mxCell>
        <mxCell id="q3L-NCkKGhcxbYuwb6-e-52" value="X_H" style="text;html=1;align=center;verticalAlign=middle;resizable=0;points=[];autosize=1;strokeColor=none;fillColor=none;" parent="1" vertex="1">
          <mxGeometry x="653" y="336" width="50" height="30" as="geometry" />
        </mxCell>
        <mxCell id="q3L-NCkKGhcxbYuwb6-e-53" value="2" style="text;html=1;align=center;verticalAlign=middle;resizable=0;points=[];autosize=1;strokeColor=none;fillColor=none;" parent="1" vertex="1">
          <mxGeometry x="640" y="345" width="30" height="30" as="geometry" />
        </mxCell>
        <mxCell id="q3L-NCkKGhcxbYuwb6-e-56" value="0" style="text;html=1;align=center;verticalAlign=middle;resizable=0;points=[];autosize=1;strokeColor=none;fillColor=none;" parent="1" vertex="1">
          <mxGeometry x="640" y="305" width="30" height="30" as="geometry" />
        </mxCell>
        <mxCell id="q3L-NCkKGhcxbYuwb6-e-57" value="2" style="text;html=1;align=center;verticalAlign=middle;resizable=0;points=[];autosize=1;strokeColor=none;fillColor=none;" parent="1" vertex="1">
          <mxGeometry x="640" y="105" width="30" height="30" as="geometry" />
        </mxCell>
        <mxCell id="q3L-NCkKGhcxbYuwb6-e-58" value="1" style="text;html=1;align=center;verticalAlign=middle;resizable=0;points=[];autosize=1;strokeColor=none;fillColor=none;" parent="1" vertex="1">
          <mxGeometry x="640" y="85" width="30" height="30" as="geometry" />
        </mxCell>
        <mxCell id="q3L-NCkKGhcxbYuwb6-e-59" value="0" style="text;html=1;align=center;verticalAlign=middle;resizable=0;points=[];autosize=1;strokeColor=none;fillColor=none;" parent="1" vertex="1">
          <mxGeometry x="640" y="65" width="30" height="30" as="geometry" />
        </mxCell>
        <mxCell id="q3L-NCkKGhcxbYuwb6-e-71" style="edgeStyle=orthogonalEdgeStyle;rounded=0;orthogonalLoop=1;jettySize=auto;html=1;exitX=1;exitY=0.5;exitDx=0;exitDy=0;entryX=0;entryY=0.5;entryDx=0;entryDy=0;" parent="1" source="q3L-NCkKGhcxbYuwb6-e-64" target="q3L-NCkKGhcxbYuwb6-e-17" edge="1">
          <mxGeometry relative="1" as="geometry" />
        </mxCell>
        <mxCell id="q3L-NCkKGhcxbYuwb6-e-64" value="ADD" style="ellipse;whiteSpace=wrap;html=1;aspect=fixed;fillColor=#fff2cc;strokeColor=#d6b656;" parent="1" vertex="1">
          <mxGeometry x="800" y="320" width="40" height="40" as="geometry" />
        </mxCell>
        <mxCell id="q3L-NCkKGhcxbYuwb6-e-69" value="REC_H" style="text;html=1;align=center;verticalAlign=middle;resizable=0;points=[];autosize=1;strokeColor=none;fillColor=none;" parent="1" vertex="1">
          <mxGeometry x="653" y="96" width="70" height="30" as="geometry" />
        </mxCell>
        <mxCell id="q3L-NCkKGhcxbYuwb6-e-91" value="REC_R" style="text;html=1;align=center;verticalAlign=middle;resizable=0;points=[];autosize=1;strokeColor=none;fillColor=none;" parent="1" vertex="1">
          <mxGeometry x="653" y="76" width="70" height="30" as="geometry" />
        </mxCell>
        <mxCell id="q3L-NCkKGhcxbYuwb6-e-92" value="REC_Z" style="text;html=1;align=center;verticalAlign=middle;resizable=0;points=[];autosize=1;strokeColor=none;fillColor=none;" parent="1" vertex="1">
          <mxGeometry x="657" y="56" width="60" height="30" as="geometry" />
        </mxCell>
        <mxCell id="q3L-NCkKGhcxbYuwb6-e-105" value="X_R" style="text;html=1;align=center;verticalAlign=middle;resizable=0;points=[];autosize=1;strokeColor=none;fillColor=none;" parent="1" vertex="1">
          <mxGeometry x="653" y="316" width="50" height="30" as="geometry" />
        </mxCell>
        <mxCell id="q3L-NCkKGhcxbYuwb6-e-106" value="X_Z" style="text;html=1;align=center;verticalAlign=middle;resizable=0;points=[];autosize=1;strokeColor=none;fillColor=none;" parent="1" vertex="1">
          <mxGeometry x="657" y="296" width="40" height="30" as="geometry" />
        </mxCell>
        <mxCell id="q3L-NCkKGhcxbYuwb6-e-107" value="1" style="text;html=1;align=center;verticalAlign=middle;resizable=0;points=[];autosize=1;strokeColor=none;fillColor=none;" parent="1" vertex="1">
          <mxGeometry x="640" y="325" width="30" height="30" as="geometry" />
        </mxCell>
        <mxCell id="q3L-NCkKGhcxbYuwb6-e-112" value="-" style="ellipse;whiteSpace=wrap;html=1;aspect=fixed;fillColor=#e1d5e7;strokeColor=#9673a6;" parent="1" vertex="1">
          <mxGeometry x="942.5" y="550" width="40" height="40" as="geometry" />
        </mxCell>
        <mxCell id="q3L-NCkKGhcxbYuwb6-e-121" value="Z" style="text;html=1;align=center;verticalAlign=middle;resizable=0;points=[];autosize=1;strokeColor=none;fillColor=none;" parent="1" vertex="1">
          <mxGeometry x="945" y="186" width="30" height="30" as="geometry" />
        </mxCell>
        <mxCell id="q3L-NCkKGhcxbYuwb6-e-122" value="R" style="text;html=1;align=center;verticalAlign=middle;resizable=0;points=[];autosize=1;strokeColor=none;fillColor=none;" parent="1" vertex="1">
          <mxGeometry x="944" y="316" width="30" height="30" as="geometry" />
        </mxCell>
        <mxCell id="q3L-NCkKGhcxbYuwb6-e-123" value="HH" style="text;html=1;align=center;verticalAlign=middle;resizable=0;points=[];autosize=1;strokeColor=none;fillColor=none;" parent="1" vertex="1">
          <mxGeometry x="756" y="522" width="40" height="30" as="geometry" />
        </mxCell>
        <mxCell id="q3L-NCkKGhcxbYuwb6-e-124" value="H" style="text;html=1;align=center;verticalAlign=middle;resizable=0;points=[];autosize=1;strokeColor=none;fillColor=none;" parent="1" vertex="1">
          <mxGeometry x="757" y="652" width="30" height="30" as="geometry" />
        </mxCell>
        <mxCell id="yG50L7q11J7QSrY-q6KC-1" value="[64]" style="text;html=1;align=center;verticalAlign=middle;resizable=0;points=[];autosize=1;strokeColor=none;fillColor=none;" parent="1" vertex="1">
          <mxGeometry x="284" y="15" width="40" height="30" as="geometry" />
        </mxCell>
        <mxCell id="yG50L7q11J7QSrY-q6KC-2" value="[64]" style="text;html=1;align=center;verticalAlign=middle;resizable=0;points=[];autosize=1;strokeColor=none;fillColor=none;" parent="1" vertex="1">
          <mxGeometry x="284" y="315" width="40" height="30" as="geometry" />
        </mxCell>
        <mxCell id="yG50L7q11J7QSrY-q6KC-3" value="[1]" style="text;html=1;align=center;verticalAlign=middle;resizable=0;points=[];autosize=1;strokeColor=none;fillColor=none;" parent="1" vertex="1">
          <mxGeometry x="716" y="652" width="40" height="30" as="geometry" />
        </mxCell>
        <mxCell id="yG50L7q11J7QSrY-q6KC-4" value="[idx] [3] [64]" style="text;html=1;align=center;verticalAlign=middle;resizable=0;points=[];autosize=1;strokeColor=none;fillColor=none;" parent="1" vertex="1">
          <mxGeometry x="287" y="135" width="80" height="30" as="geometry" />
        </mxCell>
        <mxCell id="yG50L7q11J7QSrY-q6KC-5" value="[idx] [3]" style="text;html=1;align=center;verticalAlign=middle;resizable=0;points=[];autosize=1;strokeColor=none;fillColor=none;" parent="1" vertex="1">
          <mxGeometry x="466" y="135" width="60" height="30" as="geometry" />
        </mxCell>
        <mxCell id="yG50L7q11J7QSrY-q6KC-6" value="[idx] [3] [64]" style="text;html=1;align=center;verticalAlign=middle;resizable=0;points=[];autosize=1;strokeColor=none;fillColor=none;" parent="1" vertex="1">
          <mxGeometry x="287" y="375" width="80" height="30" as="geometry" />
        </mxCell>
        <mxCell id="yG50L7q11J7QSrY-q6KC-7" value="[idx] [3]" style="text;html=1;align=center;verticalAlign=middle;resizable=0;points=[];autosize=1;strokeColor=none;fillColor=none;" parent="1" vertex="1">
          <mxGeometry x="466" y="375" width="60" height="30" as="geometry" />
        </mxCell>
        <mxCell id="yG50L7q11J7QSrY-q6KC-8" value="[1]" style="text;html=1;align=center;verticalAlign=middle;resizable=0;points=[];autosize=1;strokeColor=none;fillColor=none;" parent="1" vertex="1">
          <mxGeometry x="720" y="56" width="40" height="30" as="geometry" />
        </mxCell>
        <mxCell id="yG50L7q11J7QSrY-q6KC-11" value="[1]" style="text;html=1;align=center;verticalAlign=middle;resizable=0;points=[];autosize=1;strokeColor=none;fillColor=none;" parent="1" vertex="1">
          <mxGeometry x="740" y="76" width="40" height="30" as="geometry" />
        </mxCell>
        <mxCell id="yG50L7q11J7QSrY-q6KC-12" value="[1]" style="text;html=1;align=center;verticalAlign=middle;resizable=0;points=[];autosize=1;strokeColor=none;fillColor=none;" parent="1" vertex="1">
          <mxGeometry x="760" y="96" width="40" height="30" as="geometry" />
        </mxCell>
        <mxCell id="yG50L7q11J7QSrY-q6KC-13" value="[1]" style="text;html=1;align=center;verticalAlign=middle;resizable=0;points=[];autosize=1;strokeColor=none;fillColor=none;" parent="1" vertex="1">
          <mxGeometry x="720" y="296" width="40" height="30" as="geometry" />
        </mxCell>
        <mxCell id="yG50L7q11J7QSrY-q6KC-14" value="[1]" style="text;html=1;align=center;verticalAlign=middle;resizable=0;points=[];autosize=1;strokeColor=none;fillColor=none;" parent="1" vertex="1">
          <mxGeometry x="730" y="316" width="40" height="30" as="geometry" />
        </mxCell>
        <mxCell id="yG50L7q11J7QSrY-q6KC-15" value="[1]" style="text;html=1;align=center;verticalAlign=middle;resizable=0;points=[];autosize=1;strokeColor=none;fillColor=none;" parent="1" vertex="1">
          <mxGeometry x="720" y="336" width="40" height="30" as="geometry" />
        </mxCell>
        <mxCell id="yG50L7q11J7QSrY-q6KC-16" value="[1]" style="text;html=1;align=center;verticalAlign=middle;resizable=0;points=[];autosize=1;strokeColor=none;fillColor=none;" parent="1" vertex="1">
          <mxGeometry x="740" y="206" width="40" height="30" as="geometry" />
        </mxCell>
        <mxCell id="yG50L7q11J7QSrY-q6KC-17" value="[1]" style="text;html=1;align=center;verticalAlign=middle;resizable=0;points=[];autosize=1;strokeColor=none;fillColor=none;" parent="1" vertex="1">
          <mxGeometry x="950" y="206" width="40" height="30" as="geometry" />
        </mxCell>
        <mxCell id="yG50L7q11J7QSrY-q6KC-18" value="[1]" style="text;html=1;align=center;verticalAlign=middle;resizable=0;points=[];autosize=1;strokeColor=none;fillColor=none;" parent="1" vertex="1">
          <mxGeometry x="840" y="336" width="40" height="30" as="geometry" />
        </mxCell>
        <mxCell id="yG50L7q11J7QSrY-q6KC-19" value="[1]" style="text;html=1;align=center;verticalAlign=middle;resizable=0;points=[];autosize=1;strokeColor=none;fillColor=none;" parent="1" vertex="1">
          <mxGeometry x="950" y="336" width="40" height="30" as="geometry" />
        </mxCell>
        <mxCell id="yG50L7q11J7QSrY-q6KC-20" value="[1]" style="text;html=1;align=center;verticalAlign=middle;resizable=0;points=[];autosize=1;strokeColor=none;fillColor=none;" parent="1" vertex="1">
          <mxGeometry x="987" y="358" width="40" height="30" as="geometry" />
        </mxCell>
        <mxCell id="yG50L7q11J7QSrY-q6KC-21" value="[1]" style="text;html=1;align=center;verticalAlign=middle;resizable=0;points=[];autosize=1;strokeColor=none;fillColor=none;" parent="1" vertex="1">
          <mxGeometry x="716" y="582" width="40" height="30" as="geometry" />
        </mxCell>
        <mxCell id="yG50L7q11J7QSrY-q6KC-22" value="[1]" style="text;html=1;align=center;verticalAlign=middle;resizable=0;points=[];autosize=1;strokeColor=none;fillColor=none;" parent="1" vertex="1">
          <mxGeometry x="716" y="522" width="40" height="30" as="geometry" />
        </mxCell>
        <mxCell id="yG50L7q11J7QSrY-q6KC-23" value="[1]" style="text;html=1;align=center;verticalAlign=middle;resizable=0;points=[];autosize=1;strokeColor=none;fillColor=none;" parent="1" vertex="1">
          <mxGeometry x="716" y="442" width="40" height="30" as="geometry" />
        </mxCell>
        <mxCell id="yG50L7q11J7QSrY-q6KC-24" value="[1]" style="text;html=1;align=center;verticalAlign=middle;resizable=0;points=[];autosize=1;strokeColor=none;fillColor=none;" parent="1" vertex="1">
          <mxGeometry x="902" y="565" width="40" height="30" as="geometry" />
        </mxCell>
        <mxCell id="yG50L7q11J7QSrY-q6KC-25" value="[1]" style="text;html=1;align=center;verticalAlign=middle;resizable=0;points=[];autosize=1;strokeColor=none;fillColor=none;" parent="1" vertex="1">
          <mxGeometry x="820" y="565" width="40" height="30" as="geometry" />
        </mxCell>
        <mxCell id="yG50L7q11J7QSrY-q6KC-26" value="[1]" style="text;html=1;align=center;verticalAlign=middle;resizable=0;points=[];autosize=1;strokeColor=none;fillColor=none;" parent="1" vertex="1">
          <mxGeometry x="820" y="635" width="40" height="30" as="geometry" />
        </mxCell>
        <mxCell id="yG50L7q11J7QSrY-q6KC-27" value="[3]" style="text;html=1;align=center;verticalAlign=middle;resizable=0;points=[];autosize=1;strokeColor=none;fillColor=none;" parent="1" vertex="1">
          <mxGeometry x="389" y="333" width="40" height="30" as="geometry" />
        </mxCell>
        <mxCell id="yG50L7q11J7QSrY-q6KC-28" value="[3]" style="text;html=1;align=center;verticalAlign=middle;resizable=0;points=[];autosize=1;strokeColor=none;fillColor=none;" parent="1" vertex="1">
          <mxGeometry x="549" y="333" width="40" height="30" as="geometry" />
        </mxCell>
        <mxCell id="yG50L7q11J7QSrY-q6KC-29" value="[3]" style="text;html=1;align=center;verticalAlign=middle;resizable=0;points=[];autosize=1;strokeColor=none;fillColor=none;" parent="1" vertex="1">
          <mxGeometry x="389" y="93" width="40" height="30" as="geometry" />
        </mxCell>
        <mxCell id="yG50L7q11J7QSrY-q6KC-30" value="[3]" style="text;html=1;align=center;verticalAlign=middle;resizable=0;points=[];autosize=1;strokeColor=none;fillColor=none;" parent="1" vertex="1">
          <mxGeometry x="549" y="93" width="40" height="30" as="geometry" />
        </mxCell>
        <mxCell id="bPZLMtwIf8Tth22qELU2-13" style="edgeStyle=orthogonalEdgeStyle;rounded=0;orthogonalLoop=1;jettySize=auto;html=1;" parent="1" source="bPZLMtwIf8Tth22qELU2-2" target="bPZLMtwIf8Tth22qELU2-8" edge="1">
          <mxGeometry relative="1" as="geometry" />
        </mxCell>
        <mxCell id="bPZLMtwIf8Tth22qELU2-19" value="&lt;font style=&quot;font-size: 12px;&quot;&gt;[1]&lt;/font&gt;" style="edgeLabel;html=1;align=center;verticalAlign=middle;resizable=0;points=[];" parent="bPZLMtwIf8Tth22qELU2-13" vertex="1" connectable="0">
          <mxGeometry x="-0.8109" y="-1" relative="1" as="geometry">
            <mxPoint y="-12" as="offset" />
          </mxGeometry>
        </mxCell>
        <mxCell id="bPZLMtwIf8Tth22qELU2-14" style="edgeStyle=orthogonalEdgeStyle;rounded=0;orthogonalLoop=1;jettySize=auto;html=1;" parent="1" source="bPZLMtwIf8Tth22qELU2-2" target="q3L-NCkKGhcxbYuwb6-e-2" edge="1">
          <mxGeometry relative="1" as="geometry">
            <Array as="points">
              <mxPoint x="151" y="-40" />
              <mxPoint x="151" y="240" />
              <mxPoint x="361" y="240" />
            </Array>
          </mxGeometry>
        </mxCell>
        <mxCell id="bPZLMtwIf8Tth22qELU2-15" style="edgeStyle=orthogonalEdgeStyle;rounded=0;orthogonalLoop=1;jettySize=auto;html=1;" parent="1" source="bPZLMtwIf8Tth22qELU2-2" target="q3L-NCkKGhcxbYuwb6-e-4" edge="1">
          <mxGeometry relative="1" as="geometry">
            <Array as="points">
              <mxPoint x="151" y="-40" />
              <mxPoint x="151" y="240" />
              <mxPoint x="521" y="240" />
            </Array>
          </mxGeometry>
        </mxCell>
        <mxCell id="bPZLMtwIf8Tth22qELU2-16" style="edgeStyle=orthogonalEdgeStyle;rounded=0;orthogonalLoop=1;jettySize=auto;html=1;" parent="1" source="bPZLMtwIf8Tth22qELU2-2" target="q3L-NCkKGhcxbYuwb6-e-1" edge="1">
          <mxGeometry relative="1" as="geometry">
            <Array as="points">
              <mxPoint x="151" y="-40" />
              <mxPoint x="151" y="480" />
              <mxPoint x="361" y="480" />
            </Array>
          </mxGeometry>
        </mxCell>
        <mxCell id="bPZLMtwIf8Tth22qELU2-17" style="edgeStyle=orthogonalEdgeStyle;rounded=0;orthogonalLoop=1;jettySize=auto;html=1;" parent="1" source="bPZLMtwIf8Tth22qELU2-2" target="q3L-NCkKGhcxbYuwb6-e-3" edge="1">
          <mxGeometry relative="1" as="geometry">
            <Array as="points">
              <mxPoint x="151" y="-40" />
              <mxPoint x="151" y="480" />
              <mxPoint x="521" y="480" />
            </Array>
          </mxGeometry>
        </mxCell>
        <mxCell id="bPZLMtwIf8Tth22qELU2-20" value="&lt;font style=&quot;font-size: 12px;&quot;&gt;[1]&lt;/font&gt;" style="edgeLabel;html=1;align=center;verticalAlign=middle;resizable=0;points=[];" parent="bPZLMtwIf8Tth22qELU2-17" vertex="1" connectable="0">
          <mxGeometry x="-0.9173" y="-3" relative="1" as="geometry">
            <mxPoint y="-40" as="offset" />
          </mxGeometry>
        </mxCell>
        <mxCell id="bPZLMtwIf8Tth22qELU2-2" value="&lt;div&gt;IDX&lt;/div&gt;&lt;div&gt;(cell column index)&lt;br&gt;&lt;/div&gt;" style="rounded=1;whiteSpace=wrap;html=1;fillColor=#f5f5f5;strokeColor=#666666;fontColor=#333333;" parent="1" vertex="1">
          <mxGeometry x="160" y="-70" width="120" height="60" as="geometry" />
        </mxCell>
        <mxCell id="bPZLMtwIf8Tth22qELU2-9" value="" style="edgeStyle=orthogonalEdgeStyle;rounded=0;orthogonalLoop=1;jettySize=auto;html=1;exitX=1;exitY=0.5;exitDx=0;exitDy=0;" parent="1" source="q3L-NCkKGhcxbYuwb6-e-23" target="bPZLMtwIf8Tth22qELU2-8" edge="1">
          <mxGeometry relative="1" as="geometry">
            <Array as="points">
              <mxPoint x="351" y="40" />
              <mxPoint x="351" y="40" />
            </Array>
            <mxPoint x="261" y="40" as="sourcePoint" />
            <mxPoint x="904" y="660" as="targetPoint" />
          </mxGeometry>
        </mxCell>
        <mxCell id="bPZLMtwIf8Tth22qELU2-8" value="this cell prev state" style="rounded=0;whiteSpace=wrap;html=1;fillColor=#dae8fc;strokeColor=#6c8ebf;" parent="1" vertex="1">
          <mxGeometry x="381" y="20" width="80" height="40" as="geometry" />
        </mxCell>
        <mxCell id="bPZLMtwIf8Tth22qELU2-25" value="" style="rounded=1;whiteSpace=wrap;html=1;fillColor=none;strokeColor=#7EA6E0;dashed=1;strokeWidth=3;perimeterSpacing=0;glass=0;dashPattern=1 1;" parent="1" vertex="1">
          <mxGeometry x="870" y="283" width="180" height="107" as="geometry" />
        </mxCell>
        <mxCell id="bPZLMtwIf8Tth22qELU2-26" value="&lt;i&gt;Update Gate&lt;br&gt;&lt;/i&gt;" style="text;html=1;strokeColor=none;fillColor=none;align=center;verticalAlign=middle;whiteSpace=wrap;rounded=0;fontColor=#FF3333;" parent="1" vertex="1">
          <mxGeometry x="870" y="146.5" width="90" height="30" as="geometry" />
        </mxCell>
        <mxCell id="bPZLMtwIf8Tth22qELU2-27" value="&lt;i&gt;Reset Gate&lt;br&gt;&lt;/i&gt;" style="text;html=1;strokeColor=none;fillColor=none;align=center;verticalAlign=middle;whiteSpace=wrap;rounded=0;labelBackgroundColor=none;labelBorderColor=none;fontColor=#007FFF;fontStyle=0" parent="1" vertex="1">
          <mxGeometry x="870" y="283" width="90" height="30" as="geometry" />
        </mxCell>
      </root>
    </mxGraphModel>
  </diagram>
</mxfile>
